<?xml version="1.0"?>
<svg xmlns="http://www.w3.org/2000/svg" width="32" height="32" viewBox="0 0 32 32" fill="none">
  <style>
    path {
      fill: #293136;
    }
    @media (prefers-color-scheme: dark) {
      path {
        fill: #fff;
      }
    }
  </style>
<path d="M13.5469 5.29768C13.5469 7.11891 12.0813 8.59535 10.2734 8.59535C8.46557 8.59535 7 7.11891 7 5.29768C7 3.47642 8.46557 2 10.2734 2C12.0813 2 13.5469 3.47642 13.5469 5.29768Z" fill="#293136"/>
<path d="M20.4089 10.5618H23.3821C24.1479 10.5618 24.5083 10.8946 24.5383 11.6207V28.9411C24.5383 29.6672 24.1779 30 23.3971 30H20.5141C19.6732 30 19.4329 29.8789 18.9824 29.1983L12.9011 19.8649V28.9411C12.9011 29.6672 12.5407 30 11.7598 30H8.78671C8.00589 30 7.64551 29.6672 7.64551 28.9411V11.6207C7.64551 10.8946 8.00589 10.5618 8.78671 10.5618H11.7148C12.5557 10.5921 12.826 10.7131 13.2464 11.3636L19.2977 20.7423V11.6207C19.2977 10.8946 19.6582 10.5618 20.4089 10.5618Z" fill="#293136"/>
</svg>
