# MappedIn
mtllib aarow.mtl

o 565db7d80721c67fd4000001
usemtl 565db7d80721c67fd4000001
v 7.409440175631175 2.469813391877058 -5
v -13.172338090010978 29.912184412733264 -5
v 0.5488474204171241 29.912184412733264 -5
v 0.5488474204171241 71.07574094401757 -5
v 14.270032930845225 71.07574094401757 -5
v 14.270032930845225 29.912184412733264 -5
v 27.99121844127333 29.912184412733264 -5
v 7.409440175631175 2.469813391877058 0
v -13.172338090010978 29.912184412733264 0
v 0.5488474204171241 29.912184412733264 0
v 0.5488474204171241 71.07574094401757 0
v 14.270032930845225 71.07574094401757 0
v 14.270032930845225 29.912184412733264 0
v 27.99121844127333 29.912184412733264 0
vt 14.270032930845225 29.912184412733264
vt 27.99121844127333 29.912184412733264
vt 7.409440175631175 2.469813391877058
vt 0.5488474204171241 71.07574094401757
vt 14.270032930845225 71.07574094401757
vt 14.270032930845225 29.912184412733264
vt 7.409440175631175 2.469813391877058
vt -13.172338090010978 29.912184412733264
vt 0.5488474204171241 29.912184412733264
vt 0.5488474204171241 71.07574094401757
vt 14.270032930845225 29.912184412733264
vt 7.409440175631175 2.469813391877058
vt 7.409440175631175 2.469813391877058
vt 0.5488474204171241 29.912184412733264
vt 0.5488474204171241 71.07574094401757
vt 7.409440175631175 2.469813391877058
vt 27.99121844127333 29.912184412733264
vt 14.270032930845225 29.912184412733264
vt 14.270032930845225 29.912184412733264
vt 14.270032930845225 71.07574094401757
vt 0.5488474204171241 71.07574094401757
vt 0.5488474204171241 29.912184412733264
vt -13.172338090010978 29.912184412733264
vt 7.409440175631175 2.469813391877058
vt 7.409440175631175 2.469813391877058
vt 14.270032930845225 29.912184412733264
vt 0.5488474204171241 71.07574094401757
vt 0.5488474204171241 71.07574094401757
vt 0.5488474204171241 29.912184412733264
vt 7.409440175631175 2.469813391877058
vt 27.99121844127333 1
vt 14.270032930845225 1
vt 27.99121844127333 0
vt 14.270032930845225 1
vt 14.270032930845225 0
vt 27.99121844127333 0
vt 29.912184412733264 1
vt 71.07574094401757 1
vt 29.912184412733264 0
vt 71.07574094401757 1
vt 71.07574094401757 0
vt 29.912184412733264 0
vt 14.270032930845225 1
vt 0.5488474204171241 1
vt 14.270032930845225 0
vt 0.5488474204171241 1
vt 0.5488474204171241 0
vt 14.270032930845225 0
vt 71.07574094401757 1
vt 29.912184412733264 1
vt 71.07574094401757 0
vt 29.912184412733264 1
vt 29.912184412733264 0
vt 71.07574094401757 0
vt 0.5488474204171241 1
vt -13.172338090010978 1
vt 0.5488474204171241 0
vt -13.172338090010978 1
vt -13.172338090010978 0
vt 0.5488474204171241 0
vt 29.912184412733264 1
vt 2.469813391877058 1
vt 29.912184412733264 0
vt 2.469813391877058 1
vt 2.469813391877058 0
vt 29.912184412733264 0
vt 2.469813391877058 1
vt 29.912184412733264 1
vt 2.469813391877058 0
vt 29.912184412733264 1
vt 29.912184412733264 0
vt 2.469813391877058 0
vn 0 0 -0.20000000298023224
vn 0 0 -0.20000000298023224
vn 0 0 -0.20000000298023224
vn 0 0 -0.2000000029802322
vn 0 0 -0.2000000029802322
vn 0 0 -0.2000000029802322
vn 0 0 -0.20000000298023224
vn 0 0 -0.20000000298023224
vn 0 0 -0.20000000298023224
vn 0 0 -0.20000000298023224
vn 0 0 -0.20000000298023224
vn 0 0 -0.20000000298023224
vn 0 0 -0.20000000298023224
vn 0 0 -0.20000000298023224
vn 0 0 -0.20000000298023224
vn 0 0 0.20000000298023224
vn 0 0 0.20000000298023224
vn 0 0 0.20000000298023224
vn 0 0 0.2000000029802322
vn 0 0 0.2000000029802322
vn 0 0 0.2000000029802322
vn 0 0 0.20000000298023224
vn 0 0 0.20000000298023224
vn 0 0 0.20000000298023224
vn 0 0 0.20000000298023224
vn 0 0 0.20000000298023224
vn 0 0 0.20000000298023224
vn 0 0 0.20000000298023224
vn 0 0 0.20000000298023224
vn 0 0 0.20000000298023224
vn 0 1 0
vn 0 1 0
vn 0 1 0
vn 0 1 0
vn 0 1 0
vn 0 1 0
vn 0.9999999999999999 0 0
vn 0.9999999999999999 0 0
vn 0.9999999999999999 0 0
vn 0.9999999999999999 0 0
vn 0.9999999999999999 0 0
vn 0.9999999999999999 0 0
vn 0 1 0
vn 0 1 0
vn 0 1 0
vn 0 1 0
vn 0 1 0
vn 0 1 0
vn -0.9999999999999999 0 0
vn -0.9999999999999999 0 0
vn -0.9999999999999999 0 0
vn -0.9999999999999999 0 0
vn -0.9999999999999999 0 0
vn -0.9999999999999999 0 0
vn 0 1 0
vn 0 1 0
vn 0 1 0
vn 0 1 0
vn 0 1 0
vn 0 1 0
vn -0.8 -0.6 0
vn -0.8 -0.6 0
vn -0.8 -0.6 0
vn -0.8 -0.6 0
vn -0.8 -0.6 0
vn -0.8 -0.6 0
vn 0.8 -0.6 0
vn 0.8 -0.6 0
vn 0.8 -0.6 0
vn 0.8 -0.6 0
vn 0.8 -0.6 0
vn 0.8 -0.6 0
f 6/1/1 7/2/2 1/3/3
f 4/4/4 5/5/5 6/6/6
f 1/7/7 2/8/8 3/9/9
f 4/10/10 6/11/11 1/12/12
f 1/13/13 3/14/14 4/15/15
f 8/16/16 14/17/17 13/18/18
f 13/19/19 12/20/20 11/21/21
f 10/22/22 9/23/23 8/24/24
f 8/25/25 13/26/26 11/27/27
f 11/28/28 10/29/29 8/30/30
f 7/31/31 6/32/32 14/33/33
f 6/34/34 13/35/35 14/36/36
f 6/37/37 5/38/38 13/39/39
f 5/40/40 12/41/41 13/42/42
f 5/43/43 4/44/44 12/45/45
f 4/46/46 11/47/47 12/48/48
f 4/49/49 3/50/50 11/51/51
f 3/52/52 10/53/53 11/54/54
f 3/55/55 2/56/56 10/57/57
f 2/58/58 9/59/59 10/60/60
f 2/61/61 1/62/62 9/63/63
f 1/64/64 8/65/65 9/66/66
f 1/67/67 7/68/68 8/69/69
f 7/70/70 14/71/71 8/72/72
